<svg width="20" height="20" viewBox="0 0 20 20" fill="none" xmlns="http://www.w3.org/2000/svg">
<path fill-rule="evenodd" clip-rule="evenodd" d="M10 5.45455C7.48962 5.45455 5.45455 7.48962 5.45455 10C5.45455 12.5104 7.48962 14.5455 10 14.5455C12.5104 14.5455 14.5455 12.5104 14.5455 10C14.5455 7.48962 12.5104 5.45455 10 5.45455ZM7.27273 10C7.27273 11.5063 8.49373 12.7273 10 12.7273C11.5063 12.7273 12.7273 11.5063 12.7273 10C12.7273 8.49373 11.5063 7.27273 10 7.27273C8.49373 7.27273 7.27273 8.49373 7.27273 10Z" fill="white"/>
<path d="M15.4545 3.63636C14.9525 3.63636 14.5455 4.04338 14.5455 4.54545C14.5455 5.04753 14.9525 5.45455 15.4545 5.45455C15.9566 5.45455 16.3636 5.04753 16.3636 4.54545C16.3636 4.04338 15.9566 3.63636 15.4545 3.63636Z" fill="white"/>
<path fill-rule="evenodd" clip-rule="evenodd" d="M3.63636 0C1.62805 0 0 1.62805 0 3.63636V16.3636C0 18.3719 1.62805 20 3.63636 20H16.3636C18.3719 20 20 18.3719 20 16.3636V3.63636C20 1.62805 18.3719 0 16.3636 0H3.63636ZM16.3636 1.81818H3.63636C2.63221 1.81818 1.81818 2.63221 1.81818 3.63636V16.3636C1.81818 17.3678 2.63221 18.1818 3.63636 18.1818H16.3636C17.3678 18.1818 18.1818 17.3678 18.1818 16.3636V3.63636C18.1818 2.63221 17.3678 1.81818 16.3636 1.81818Z" fill="white"/>
</svg>
