<svg width="25" height="20" viewBox="0 0 25 20" fill="none" xmlns="http://www.w3.org/2000/svg">
<path d="M23.0749 0H1.92511C0.864979 0 0 0.922904 0 2.05402V17.946C0 19.0771 0.864979 20 1.92511 20H23.0749C24.135 20 25 19.0771 25 17.946V2.05402C25 0.922904 24.135 0 23.0749 0ZM22.7954 1.51941L12.6319 10.7935L2.46835 1.51941H22.7954ZM23.5759 17.946C23.5759 18.2386 23.3492 18.4806 23.0749 18.4806H1.92511C1.65084 18.4806 1.42405 18.2386 1.42405 17.946V2.56612L12.1677 12.3692C12.173 12.3748 12.1835 12.3804 12.1888 12.386C12.1941 12.3917 12.2046 12.3973 12.2099 12.4029C12.2257 12.4142 12.2363 12.4254 12.2521 12.4311C12.2574 12.4367 12.2627 12.4367 12.2679 12.4423C12.289 12.4536 12.3101 12.4648 12.3312 12.4761C12.3365 12.4761 12.3418 12.4817 12.347 12.4817C12.3629 12.4873 12.3787 12.4986 12.3998 12.5042C12.4051 12.5042 12.4156 12.5098 12.4209 12.5098C12.4367 12.5155 12.4525 12.5211 12.4684 12.5211C12.4736 12.5211 12.4842 12.5267 12.4895 12.5267C12.5053 12.5324 12.5264 12.5324 12.5422 12.538C12.5475 12.538 12.5527 12.538 12.558 12.538C12.5791 12.538 12.6055 12.5436 12.6266 12.5436C12.6477 12.5436 12.6741 12.5436 12.6951 12.538C12.7004 12.538 12.7057 12.538 12.711 12.538C12.7268 12.538 12.7479 12.5324 12.7637 12.5267C12.769 12.5267 12.7795 12.5211 12.7848 12.5211C12.8006 12.5155 12.8165 12.5098 12.8323 12.5098C12.8376 12.5098 12.8481 12.5042 12.8534 12.5042C12.8692 12.4986 12.885 12.493 12.9061 12.4817C12.9114 12.4817 12.9167 12.4761 12.9219 12.4761C12.943 12.4648 12.9641 12.4536 12.9852 12.4423C12.9905 12.4367 12.9958 12.4367 13.0011 12.4311C13.0169 12.4198 13.0274 12.4142 13.0432 12.4029C13.0485 12.3973 13.0591 12.3917 13.0643 12.386C13.0696 12.3804 13.0802 12.3748 13.0854 12.3692L23.5759 2.8081V17.946Z" fill="white"/>
</svg>
