<svg width="20" height="17" viewBox="0 0 20 17" fill="none" xmlns="http://www.w3.org/2000/svg">
<path fill-rule="evenodd" clip-rule="evenodd" d="M4.30667 10.2971C4.34971 10.3113 4.39314 10.3212 4.43654 10.3273C4.48386 10.4356 4.54501 10.5755 4.61634 10.739C4.79042 11.1383 5.02499 11.6784 5.26712 12.2418C5.76089 13.3908 6.25896 14.5751 6.36896 14.9142C6.50514 15.3332 6.64908 15.6182 6.80621 15.8127C6.88746 15.9133 6.98144 16.0011 7.09139 16.0677C7.14674 16.1011 7.20521 16.1286 7.26624 16.149C7.26893 16.15 7.27162 16.1508 7.2743 16.1517C7.58892 16.2672 7.87576 16.2191 8.05535 16.1603C8.15144 16.1287 8.22919 16.0908 8.28429 16.06C8.31239 16.0442 8.33613 16.0296 8.35506 16.0172L8.35952 16.0143L11.138 14.3291L14.3476 16.7221C14.3949 16.7574 14.4466 16.787 14.5012 16.8103C14.8868 16.9739 15.2602 17.031 15.6114 16.9843C15.9621 16.9377 16.2404 16.7945 16.4476 16.6332C16.6506 16.4753 16.7882 16.2985 16.8738 16.1671C16.9176 16.1 16.9504 16.0406 16.9736 15.9952C16.9852 15.9723 16.9946 15.9526 17.0018 15.9369L17.0111 15.916L17.0146 15.9078L17.0161 15.9043L17.0167 15.9027L17.0174 15.9012C17.0342 15.8602 17.0472 15.8177 17.056 15.7744L19.9859 1.40813C19.9953 1.36219 20 1.31545 20 1.26861C20 0.847905 19.837 0.44786 19.4538 0.205109C19.1262 -0.00237127 18.7613 -0.0113015 18.5307 0.00571761C18.2819 0.0240848 18.0521 0.0838141 17.898 0.131535C17.8177 0.156375 17.7504 0.180335 17.7019 0.198617C17.6775 0.207805 17.6576 0.215693 17.6426 0.221707L17.6315 0.226277L1.19969 6.49518L1.19756 6.49594C1.18709 6.49967 1.17364 6.50455 1.15767 6.51057C1.12585 6.52262 1.08322 6.53954 1.03342 6.56153C0.936306 6.60437 0.800063 6.6712 0.660252 6.76433C0.436894 6.9131 -0.0767836 7.32051 0.00971244 7.99295C0.0787186 8.52944 0.456615 8.85892 0.686855 9.01735C0.813276 9.10436 0.933386 9.1665 1.02086 9.20704C1.06143 9.22579 1.14568 9.25906 1.18224 9.27359L1.19147 9.27722L4.30667 10.2971ZM18.2066 1.54688L18.2043 1.54786C18.196 1.55132 18.1879 1.55463 18.1795 1.5578L1.72778 7.83433C1.71918 7.83758 1.71053 7.84074 1.70182 7.8437L1.69267 7.84705C1.68214 7.85106 1.66442 7.85804 1.64219 7.86779C1.62957 7.87334 1.61641 7.87946 1.60299 7.88596C1.62142 7.8961 1.63907 7.9048 1.65475 7.91206C1.6698 7.91904 1.68129 7.92382 1.68757 7.92631L4.77719 8.93789C4.83374 8.95644 4.88646 8.98092 4.93485 9.01056L15.1366 3.20254L15.1462 3.19705C15.1535 3.19277 15.1634 3.18728 15.1751 3.18085C15.1983 3.16809 15.2301 3.1511 15.2681 3.13231C15.3389 3.09727 15.4522 3.04524 15.5798 3.00688C15.6686 2.98018 15.9306 2.90494 16.2139 2.9933C16.3887 3.04782 16.5697 3.16505 16.6874 3.36364C16.7458 3.46231 16.777 3.56142 16.7921 3.65214C16.8322 3.79507 16.8259 3.9362 16.7945 4.05804C16.7269 4.32051 16.5373 4.52523 16.3648 4.68183C16.2169 4.81608 14.3043 6.60962 12.4176 8.38018C11.4766 9.26307 10.5454 10.1374 9.84925 10.7908L9.39209 11.2201L15.165 15.5244C15.2974 15.5705 15.3756 15.5682 15.4118 15.5633C15.455 15.5576 15.4903 15.5414 15.5264 15.5134C15.5667 15.482 15.602 15.4396 15.6283 15.3991L15.6294 15.3975L18.4711 1.46385C18.429 1.47371 18.3863 1.48545 18.3452 1.49817C18.2987 1.51258 18.2602 1.52631 18.2349 1.5359C18.2222 1.54065 18.2132 1.54425 18.2082 1.54624L18.2066 1.54688ZM9.88798 13.3971L8.73624 12.5383L8.45723 14.2648L9.88798 13.3971ZM7.67973 10.8343L8.82502 9.75892C9.52117 9.10541 10.4526 8.23112 11.3937 7.34804L12.3497 6.451L5.93965 10.1004L5.97404 10.1792C6.14874 10.58 6.38436 11.1224 6.62776 11.6888C6.80977 12.1122 7.0001 12.5582 7.17344 12.971L7.45171 11.2496C7.47853 11.0836 7.5619 10.94 7.67973 10.8343Z" fill="white"/>
</svg>
