<svg width="97" height="90" viewBox="0 0 97 90" fill="none" xmlns="http://www.w3.org/2000/svg">
<g clip-path="url(#clip0_177_212)">
<path d="M41.5281 13.729H29.4031V26.2375L49.1062 45.7629L56.6843 38.4409V61.6273H68.8093V13.729H56.6843V21.6612L49.1062 29.2883L41.5281 21.6612V13.729Z" fill="black"/>
<path d="M39.1031 45.7627H41.5281V61.6271H39.1031V45.7627Z" fill="#D61917"/>
<path d="M29.4032 45.7627H32.7375V61.6271H29.4032V45.7627Z" fill="#D61917"/>
<path d="M33.95 45.7627H35.7688V61.6271H33.95V45.7627Z" fill="#D61917"/>
<path d="M36.375 45.7627H37.5875V61.6271H36.375V45.7627Z" fill="#D61917"/>
<path d="M19.4 0H0V19.5254H2.12188V2.13559H19.4V0Z" fill="#D61917"/>
<path d="M19.4 90H0V70.4746H2.12188V87.8644H19.4V90Z" fill="#D61917"/>
<path d="M77.6 0H97V19.5254H94.8781V2.13559H77.6V0Z" fill="#D61917"/>
<path d="M77.6 90H97V70.4746H94.8781V87.8644H77.6V90Z" fill="#D61917"/>
<path d="M32.7632 73.8307H31.9851V71.9102C31.7181 72.0042 31.4695 72.0786 31.2394 72.1332C31.0094 72.1854 30.765 72.2116 30.5068 72.2116C30.0595 72.2116 29.7132 72.1058 29.4679 71.8937C29.2226 71.6799 29.1 71.3751 29.1 70.9794V69.0394H29.8815V70.796C29.8815 71.0429 29.9422 71.2296 30.0638 71.3565C30.1876 71.481 30.3928 71.5432 30.6793 71.5432C30.9051 71.5432 31.1179 71.5212 31.3173 71.4776C31.5171 71.4318 31.7396 71.3662 31.9851 71.2811V69.0394H32.7632V73.8307ZM36.713 73.8307H34.017V69.0394H36.713V69.7014H34.7984V71.0023H36.5926V71.6613H34.7984V73.1653H36.713V73.8307ZM41.389 73.8307H40.4805L38.5235 71.3989V73.8307H37.7421V69.0394H38.5235V71.3595L40.4447 69.0394H41.2977L39.3765 71.3531L41.389 73.8307ZM45.8076 73.8307L44.4369 69.8292H44.4075C44.4142 69.9186 44.4217 70.041 44.4302 70.1962C44.439 70.3512 44.4466 70.5175 44.453 70.6944C44.4596 70.8714 44.463 71.0407 44.463 71.2024V73.8307H43.753V69.0394H44.8504L46.1693 72.8639H46.1886L47.553 69.0394H48.647V73.8307H47.9013V71.1631C47.9013 71.0166 47.9037 70.8583 47.908 70.6877C47.9143 70.5175 47.921 70.3558 47.9274 70.2027C47.9362 70.0498 47.9425 69.9275 47.9471 69.8356H47.921L46.4981 73.8307H45.8076ZM52.851 73.8307L52.3851 72.5002H50.5649L50.0993 73.8307H49.2757L51.0468 69.0195H51.9132L53.6813 73.8307H52.851ZM52.1833 71.8251L51.7307 70.5141C51.7134 70.4574 51.6885 70.3775 51.6558 70.275C51.6234 70.17 51.5906 70.0641 51.5582 69.9571C51.5255 69.8478 51.4985 69.756 51.4767 69.6816C51.4551 69.7713 51.4279 69.8716 51.3954 69.9833C51.3648 70.0925 51.3345 70.195 51.3042 70.2911C51.276 70.3875 51.2542 70.4617 51.239 70.5141L50.7831 71.8251H52.1833ZM55.6934 69.0394C56.3079 69.0394 56.7562 69.166 57.0384 69.4195C57.3206 69.673 57.4616 70.0278 57.4616 70.4845C57.4616 70.6923 57.4291 70.89 57.364 71.0779C57.3012 71.2634 57.1969 71.4285 57.0514 71.5728C56.9059 71.7147 56.7138 71.8272 56.4752 71.9102C56.2385 71.9932 55.9465 72.0347 55.5992 72.0347H55.0911V73.8307H54.3097V69.0394H55.6934ZM55.6416 69.6916H55.0911V71.3794H55.5176C55.7632 71.3794 55.9714 71.351 56.143 71.2942C56.3145 71.2351 56.4446 71.1423 56.5337 71.0154C56.6228 70.8888 56.6671 70.7216 56.6671 70.5141C56.6671 70.2365 56.5837 70.0303 56.4164 69.8948C56.2515 69.7594 55.9932 69.6916 55.6416 69.6916ZM62.0594 73.8307H61.1509L59.1939 71.3989V73.8307H58.4125V69.0394H59.1939V71.3595L61.1151 69.0394H61.9684L60.0472 71.3531L62.0594 73.8307ZM65.3874 73.8307H62.6911V69.0394H65.3874V69.7014H63.4728V71.0023H65.2667V71.6613H63.4728V73.1653H65.3874V73.8307ZM68.0673 73.8307H67.2825V69.7078H65.8887V69.0394H69.4577V69.7078H68.0673V73.8307Z" fill="black"/>
</g>
<defs>
<clipPath id="clip0_177_212">
<rect width="97" height="90" fill="white"/>
</clipPath>
</defs>
</svg>
