<svg width="97" height="90" viewBox="0 0 97 90" fill="none" xmlns="http://www.w3.org/2000/svg">
<g clip-path="url(#clip0_177_146)">
<path d="M19.4 0H0V19.5254H2.12188V2.13559H19.4V0Z" fill="#D61917"/>
<path d="M19.4 90H0V70.4746H2.12188V87.8644H19.4V90Z" fill="#D61917"/>
<path d="M77.6 0H97V19.5254H94.8781V2.13559H77.6V0Z" fill="#D61917"/>
<path d="M77.6 90H97V70.4746H94.8781V87.8644H77.6V90Z" fill="#D61917"/>
<path d="M48.5 16.2651C55.0154 16.2651 60.3161 21.576 60.3161 28.1042C60.3161 34.6322 55.0154 39.9434 48.5 39.9434C41.9849 39.9434 36.6842 34.6322 36.6842 28.1043C36.6842 21.5763 41.9849 16.2651 48.5 16.2651ZM48.5 12.2036C39.7551 12.2036 32.666 19.3226 32.666 28.1042C32.666 36.8859 39.7551 44.0047 48.5 44.0047C57.2451 44.0047 64.3343 36.8859 64.3343 28.1043C64.3343 19.3227 57.2451 12.2036 48.5 12.2036Z" fill="black"/>
<path d="M58.4158 51.6882C59.6074 51.7136 68.7318 52.1971 68.7318 61.022V73.125H28.2684V61.022C28.2684 52.3555 36.8858 51.7261 38.5475 51.6882H58.4158ZM58.4525 47.627H38.5475C38.5475 47.627 24.25 47.7874 24.25 61.022C24.25 74.176 24.25 77.1863 24.25 77.1863H72.75C72.75 77.1863 72.75 74.176 72.75 61.022C72.75 47.8674 58.4525 47.627 58.4525 47.627Z" fill="black"/>
</g>
<defs>
<clipPath id="clip0_177_146">
<rect width="97" height="90" fill="white"/>
</clipPath>
</defs>
</svg>
