<svg width="32" height="30" viewBox="0 0 32 30" fill="none" xmlns="http://www.w3.org/2000/svg">
<g clip-path="url(#clip0_687_12)">
<path d="M13.7 4.57617H9.69995V8.74566L16.2 15.2541L18.7 12.8135V20.5423H22.7V4.57617H18.7V7.22024L16.2 9.76261L13.7 7.22024V4.57617Z" fill="black"/>
<path d="M12.9 15.2544H13.7V20.5425H12.9V15.2544Z" fill="#D61917"/>
<path d="M9.70005 15.2544H10.8V20.5425H9.70005V15.2544Z" fill="#D61917"/>
<path d="M11.2 15.2544H11.8V20.5425H11.2V15.2544Z" fill="#D61917"/>
<path d="M11.9999 15.2544H12.3999V20.5425H11.9999V15.2544Z" fill="#D61917"/>
<path d="M6.4 0H0V6.50847H0.7V0.711864H6.4V0Z" fill="#D61917"/>
<path d="M6.4 30.0002H0V23.4917H0.7V29.2883H6.4V30.0002Z" fill="#D61917"/>
<path d="M25.6001 0H32.0001V6.50847H31.3001V0.711864H25.6001V0Z" fill="#D61917"/>
<path d="M25.6001 30.0002H32.0001V23.4917H31.3001V29.2883H25.6001V30.0002Z" fill="#D61917"/>
<path d="M10.8086 24.6101H10.5519V23.9699C10.4638 24.0012 10.3818 24.026 10.3059 24.0442C10.23 24.0616 10.1494 24.0704 10.0642 24.0704C9.91664 24.0704 9.80241 24.0351 9.72149 23.9644C9.64056 23.8931 9.6001 23.7915 9.6001 23.6596V23.013H9.85791V23.5985C9.85791 23.6808 9.87796 23.743 9.91807 23.7853C9.95889 23.8268 10.0266 23.8476 10.1211 23.8476C10.1956 23.8476 10.2658 23.8402 10.3316 23.8257C10.3975 23.8105 10.4709 23.7886 10.5519 23.7602V23.013H10.8086V24.6101ZM12.1116 24.6101H11.2222V23.013H12.1116V23.2336H11.48V23.6673H12.0719V23.8869H11.48V24.3883H12.1116V24.6101ZM13.6542 24.6101H13.3545L12.7089 23.7995V24.6101H12.4511V23.013H12.7089V23.7863L13.3427 23.013H13.6241L12.9903 23.7842L13.6542 24.6101ZM15.1119 24.6101L14.6597 23.2762H14.65C14.6522 23.306 14.6547 23.3468 14.6575 23.3986C14.6604 23.4502 14.6629 23.5057 14.665 23.5647C14.6672 23.6236 14.6683 23.6801 14.6683 23.734V24.6101H14.4341V23.013H14.7961L15.2312 24.2878H15.2376L15.6877 23.013H16.0486V24.6101H15.8026V23.7209C15.8026 23.672 15.8034 23.6193 15.8048 23.5624C15.8069 23.5057 15.8091 23.4518 15.8112 23.4007C15.8141 23.3498 15.8162 23.309 15.8177 23.2784H15.8091L15.3397 24.6101H15.1119ZM17.4355 24.6101L17.2818 24.1666H16.6813L16.5277 24.6101H16.256L16.8403 23.0063H17.1261L17.7094 24.6101H17.4355ZM17.2152 23.9415L17.0659 23.5046C17.0602 23.4856 17.052 23.459 17.0412 23.4248C17.0305 23.3898 17.0197 23.3546 17.009 23.3189C16.9982 23.2824 16.9893 23.2518 16.9821 23.227C16.975 23.2569 16.966 23.2904 16.9553 23.3276C16.9452 23.364 16.9352 23.3982 16.9252 23.4302C16.9159 23.4623 16.9087 23.4871 16.9037 23.5046L16.7533 23.9415H17.2152ZM18.3732 23.013C18.5759 23.013 18.7238 23.0552 18.8169 23.1397C18.91 23.2242 18.9565 23.3424 18.9565 23.4947C18.9565 23.5639 18.9458 23.6298 18.9243 23.6925C18.9036 23.7543 18.8692 23.8093 18.8212 23.8574C18.7732 23.9047 18.7098 23.9422 18.6311 23.9699C18.553 23.9976 18.4567 24.0114 18.3421 24.0114H18.1745V24.6101H17.9167V23.013H18.3732ZM18.3561 23.2304H18.1745V23.793H18.3152C18.3962 23.793 18.4649 23.7835 18.5215 23.7646C18.5781 23.7449 18.621 23.7139 18.6504 23.6716C18.6798 23.6294 18.6944 23.5737 18.6944 23.5046C18.6944 23.412 18.6669 23.3433 18.6117 23.2981C18.5573 23.253 18.4721 23.2304 18.3561 23.2304ZM20.4733 24.6101H20.1736L19.528 23.7995V24.6101H19.2702V23.013H19.528V23.7863L20.1618 23.013H20.4433L19.8095 23.7842L20.4733 24.6101ZM21.5712 24.6101H20.6817V23.013H21.5712V23.2336H20.9396V23.6673H21.5314V23.8869H20.9396V24.3883H21.5712V24.6101ZM22.4553 24.6101H22.1964V23.2358H21.7366V23.013H22.914V23.2358H22.4553V24.6101Z" fill="black"/>
</g>
<defs>
<clipPath id="clip0_687_12">
<rect width="32" height="30" fill="white"/>
</clipPath>
</defs>
</svg>
