<svg width="29" height="30" viewBox="0 0 29 30" fill="none" xmlns="http://www.w3.org/2000/svg">
<path d="M28.8415 29.0411L20.3922 20.2885C22.5474 18.1356 23.8825 15.1677 23.8825 11.8944C23.8825 5.3355 18.526 0 11.9412 0C5.3565 0 0 5.3355 0 11.8944C0 18.4533 5.3565 23.7888 11.9412 23.7888C14.8316 23.7888 17.4843 22.7597 19.5518 21.052L28.0216 29.8261C28.133 29.9422 28.282 30 28.4315 30C28.5737 30 28.7153 29.9473 28.8256 29.842C29.0519 29.625 29.0587 29.2665 28.8415 29.0411ZM11.9412 22.656C5.9837 22.656 1.13726 17.8286 1.13726 11.8944C1.13726 5.96024 5.9837 1.1328 11.9412 1.1328C17.8988 1.1328 22.7452 5.96024 22.7452 11.8944C22.7452 17.8286 17.8982 22.656 11.9412 22.656Z" fill="black"/>
</svg>
