<?xml version="1.0" standalone="no"?>
<!DOCTYPE svg PUBLIC "-//W3C//DTD SVG 20010904//EN"
 "http://www.w3.org/TR/2001/REC-SVG-20010904/DTD/svg10.dtd">
<svg version="1.0" xmlns="http://www.w3.org/2000/svg"
 width="1024.000000pt" height="1024.000000pt" viewBox="0 0 1024.000000 1024.000000"
 preserveAspectRatio="xMidYMid meet">
<metadata>
Created by potrace 1.14, written by Peter Selinger 2001-2017
</metadata>
<g transform="translate(0.000000,1024.000000) scale(0.100000,-0.100000)"
fill="#000000" stroke="none">
<path d="M0 8881 c0 -822 3 -1040 13 -1043 6 -2 57 -3 112 -3 l100 1 1 914 c1
503 2 922 3 930 1 13 109 15 910 14 l908 -1 1 114 0 113 -1024 0 -1024 0 0
-1039z"/>
<path d="M8192 9807 l1 -114 908 1 c598 1 910 -2 912 -9 2 -5 3 -421 3 -923
-1 -503 3 -916 7 -919 5 -3 55 -6 113 -7 l104 -1 0 1042 0 1043 -1024 0 -1024
0 0 -113z"/>
<path d="M3106 8450 c-2 -3 -2 -303 -2 -667 l1 -663 987 -987 c543 -544 1011
-1012 1041 -1041 l53 -52 176 172 c338 332 608 593 616 596 4 1 7 -551 6
-1228 0 -862 3 -1230 10 -1231 44 -4 1266 -3 1267 1 1 3 2 1153 3 2555 l1
2551 -640 -1 -640 0 0 -423 -1 -422 -96 -98 c-53 -53 -167 -169 -253 -257
-245 -251 -448 -455 -452 -455 -2 0 -36 33 -76 74 -39 40 -218 222 -397 404
l-325 331 -1 413 c-1 227 -2 418 -3 423 -1 11 -1270 16 -1275 5z"/>
<path d="M3109 5043 c-1 -4 -3 -387 -3 -850 -1 -580 1 -843 9 -845 9 -3 284
-2 325 1 14 1 16 89 14 839 -1 460 -2 840 -3 843 -1 7 -25 10 -71 8 -31 -1
-57 -1 -102 1 -7 1 -25 -1 -40 -3 -16 -2 -28 0 -28 5 0 5 -8 5 -17 0 -20 -9
-55 -8 -72 2 -6 4 -12 4 -12 -1z"/>
<path d="M3589 5043 c-1 -4 -3 -387 -4 -850 -1 -591 2 -843 9 -844 91 -5 176
-3 179 6 2 5 3 386 3 845 l-1 835 -32 0 c-18 0 -33 3 -33 7 0 3 -12 3 -27 -1
-32 -8 -65 -7 -82 3 -6 4 -12 4 -12 -1z"/>
<path d="M3890 5042 c0 -5 -14 -6 -31 -4 -28 4 -30 3 -20 -15 5 -11 8 -23 5
-26 -8 -8 -10 -87 -2 -87 4 0 5 -6 3 -12 -9 -22 -11 -108 -3 -108 4 0 5 -6 3
-12 -9 -22 -11 -108 -3 -108 4 0 5 -6 3 -12 -9 -22 -11 -108 -3 -108 4 0 5 -6
3 -12 -9 -22 -11 -108 -3 -108 4 0 5 -6 3 -12 -9 -22 -11 -108 -3 -108 4 0 5
-6 3 -12 -9 -22 -11 -108 -3 -108 4 0 5 -6 3 -12 -9 -22 -11 -108 -3 -108 4 0
5 -6 3 -12 -9 -22 -11 -108 -4 -108 4 0 4 -13 -1 -30 -5 -16 -6 -30 -2 -30 9
0 7 -58 -1 -67 -4 -3 -2 -12 4 -19 7 -8 7 -14 -1 -19 -8 -5 -8 -11 1 -21 9
-11 9 -14 0 -14 -9 0 -9 -5 -1 -20 8 -14 8 -20 0 -20 -7 0 -8 -6 0 -19 7 -14
7 -22 0 -26 -8 -5 -8 -11 0 -20 8 -10 8 -15 0 -20 -8 -5 -8 -11 1 -21 9 -11 9
-14 0 -14 -9 0 -9 -5 -1 -20 8 -14 8 -20 0 -20 -7 0 -8 -6 0 -19 7 -14 7 -22
0 -26 -8 -5 -8 -11 0 -20 8 -10 8 -15 0 -20 -8 -5 -8 -11 1 -21 9 -11 9 -14 0
-14 -9 0 -9 -5 -1 -20 6 -12 7 -20 1 -20 -13 0 -1 -40 13 -41 17 -1 79 -1 98
0 15 1 16 66 15 844 l-2 842 -25 0 c-14 1 -31 4 -37 8 -7 5 -13 4 -13 -1z"/>
<path d="M4148 5042 c-10 -2 -18 -9 -19 -15 -1 -15 -1 -1658 0 -1672 1 -8 216
-13 251 -6 4 1 5 1661 1 1682 -1 6 -27 7 -141 9 -8 0 -26 -1 -40 -3 -14 -1
-27 0 -30 3 -3 3 -13 4 -22 2z"/>
<path d="M3074 2545 c-2 -5 -2 -62 -1 -125 3 -147 19 -180 97 -196 46 -9 102
-5 156 11 24 7 45 10 46 7 1 -4 2 -45 4 -92 1 -47 2 -90 3 -95 1 -6 18 -10 39
-10 l37 0 0 255 0 254 -40 2 -40 1 0 -120 c1 -118 0 -119 -25 -129 -37 -14
-106 -21 -144 -14 -42 8 -47 23 -51 146 -2 52 -3 100 -4 105 -1 6 -17 11 -37
11 -20 0 -38 -5 -40 -11z"/>
<path d="M3594 2545 c-3 -6 -3 -120 -2 -255 l3 -244 138 -1 c75 0 138 3 138 7
1 4 2 20 3 36 l1 27 -95 0 c-52 0 -98 3 -101 7 -3 5 -5 41 -5 80 l1 73 93 0
c50 0 92 2 93 5 0 3 1 19 2 36 l2 30 -82 -1 c-46 0 -89 2 -96 5 -16 6 -18 129
-2 131 5 1 46 3 90 4 44 1 85 3 91 4 11 1 15 60 4 62 -3 1 -65 2 -139 3 -86 1
-135 -2 -137 -9z"/>
<path d="M3984 2306 c0 -138 4 -254 8 -257 5 -3 23 -5 41 -4 l32 2 0 121 c0
91 3 122 13 122 6 0 12 -4 12 -8 0 -8 128 -171 155 -199 7 -7 15 -18 17 -23 4
-14 86 -21 94 -9 3 5 -1 15 -8 22 -7 8 -24 28 -38 46 -24 31 -42 53 -78 96 -9
11 -30 37 -46 58 l-28 38 41 50 c23 27 60 73 84 101 23 29 48 59 55 66 20 22
14 28 -33 28 -25 0 -45 -4 -45 -8 0 -4 -8 -16 -17 -26 -10 -10 -31 -36 -48
-57 -16 -21 -35 -43 -40 -49 -6 -6 -25 -30 -44 -54 -18 -23 -36 -40 -39 -38
-4 2 -7 54 -6 115 1 61 -2 111 -5 112 -3 1 -22 2 -41 3 l-36 2 0 -250z"/>
<path d="M4618 2518 c-2 -21 0 -38 5 -38 4 0 5 -5 1 -12 -10 -16 -11 -148 -1
-148 5 0 5 -5 1 -12 -10 -16 -11 -148 -1 -148 5 0 5 -6 1 -12 -5 -7 -8 -32 -9
-55 0 -31 4 -43 15 -44 8 -1 25 -3 37 -4 13 -1 23 4 25 14 3 9 4 104 2 211 -1
135 1 186 8 165 5 -16 13 -39 18 -50 8 -19 32 -91 36 -107 1 -5 2 -9 3 -10 1
-2 19 -52 39 -113 l37 -110 35 0 c27 1 37 7 52 33 10 18 16 32 13 32 -4 0 60
184 69 199 3 4 7 18 10 32 6 30 30 97 38 104 3 3 5 -80 4 -185 -1 -105 1 -196
4 -203 8 -20 68 -19 73 1 2 9 4 125 3 257 l-1 239 -62 1 c-35 1 -61 0 -59 -3
3 -2 -8 -39 -24 -82 -16 -42 -40 -113 -55 -156 -14 -44 -30 -88 -35 -99 -4
-11 -11 -29 -14 -39 -7 -19 -7 -19 -20 0 -7 10 -16 30 -18 44 -7 28 -108 323
-113 329 -2 2 -29 4 -59 6 l-54 2 -4 -39z"/>
<path d="M5383 2541 c-5 -9 -18 -43 -28 -76 -11 -33 -22 -62 -25 -65 -3 -3 -6
-12 -8 -20 -1 -8 -29 -86 -61 -172 -34 -93 -54 -158 -47 -159 79 -8 74 -11 97
60 12 36 24 68 26 71 3 3 47 6 98 7 105 1 90 13 130 -98 16 -43 18 -45 53 -43
53 3 54 3 47 14 -7 11 -114 296 -118 315 -3 11 -35 99 -47 130 -5 11 -11 27
-13 36 -7 23 -90 22 -104 0z m61 -83 c1 -7 8 -31 15 -53 19 -60 20 -65 22 -73
1 -4 8 -21 15 -39 l14 -31 -53 -4 c-28 -1 -62 -2 -74 0 -20 3 -21 6 -12 30 6
15 13 34 15 42 13 50 48 149 52 146 2 -2 5 -10 6 -18z"/>
<path d="M5736 2551 c-2 -3 -2 -118 -2 -256 l1 -249 30 1 c17 0 35 1 41 2 7 1
10 34 9 94 l-1 92 61 2 c130 4 196 67 189 182 -3 50 -27 88 -73 115 -25 14
-55 19 -142 20 -61 1 -111 0 -113 -3z m212 -82 c43 -27 41 -114 -2 -142 -20
-14 -83 -23 -121 -18 -7 1 -10 34 -9 89 1 48 2 88 3 88 6 8 112 -6 129 -17z"/>
<path d="M6169 2540 c-6 -108 -2 -483 6 -489 6 -4 24 -7 40 -7 27 1 30 4 31
37 0 19 4 41 8 47 4 7 4 12 -1 12 -4 0 -7 17 -6 37 1 21 2 55 2 76 1 20 4 37
9 37 4 -1 27 -28 52 -61 43 -58 56 -74 101 -127 10 -12 19 -26 19 -30 0 -12
34 -27 60 -26 69 4 67 3 43 23 -13 11 -23 22 -23 26 0 4 -22 33 -48 64 -27 31
-65 78 -85 104 l-36 48 71 87 c39 48 74 89 79 90 5 2 9 10 9 18 0 8 4 14 10
14 5 0 14 8 19 18 9 17 6 18 -35 17 -25 -2 -49 -6 -53 -11 -4 -5 -49 -60 -99
-122 l-92 -113 -1 68 c0 37 -1 93 -1 124 l0 56 -39 -1 c-27 -1 -39 -5 -40 -16z"/>
<path d="M6619 2535 c-4 -113 0 -477 5 -483 8 -8 276 -10 277 -2 5 32 3 60 -6
63 -5 2 -51 3 -101 2 l-92 -1 0 81 0 81 81 -1 c45 0 88 1 95 3 6 2 12 19 12
37 l0 33 -92 -2 -93 -1 0 48 c0 26 -3 47 -7 47 -4 0 -3 10 3 23 10 22 16 23
107 23 l96 -1 -1 28 c-1 15 -1 30 -2 35 -1 4 -64 7 -141 7 -133 0 -140 -1
-141 -20z"/>
<path d="M6962 2545 c-11 -17 -9 -54 2 -58 6 -2 39 -3 73 -3 48 1 63 -2 65
-14 2 -8 3 -107 2 -220 l-1 -205 41 0 41 0 0 215 c0 118 3 218 8 221 4 3 37 5
72 4 l65 -2 0 36 0 36 -181 0 c-110 0 -183 -4 -187 -10z"/>
<path d="M4 2401 c-2 -2 -4 -472 -4 -1043 l0 -1038 1024 0 1023 0 1 113 0 114
-897 1 c-493 0 -903 1 -911 1 -13 1 -15 109 -15 922 0 564 -4 923 -9 927 -11
6 -205 9 -212 3z"/>
<path d="M10027 2400 c-9 -4 -12 -211 -12 -927 l0 -923 -25 -1 c-14 0 -423 -1
-910 -2 l-885 -2 0 -110 0 -110 1023 -3 1022 -2 0 1040 c0 572 -3 1040 -7
1041 -31 4 -196 3 -206 -1z"/>
</g>
</svg>
