<svg width="500" height="460" viewBox="0 0 500 460" fill="none" xmlns="http://www.w3.org/2000/svg">
<g clip-path="url(#clip0_34_90)">
<path d="M214.062 70.1695H151.562V134.102L253.125 233.898L292.188 196.475V314.983H354.688V70.1695H292.188V110.712L253.125 149.695L214.062 110.712V70.1695Z" fill="white"/>
<path d="M201.562 233.898H214.062V314.983H201.562V233.898Z" fill="#D61917"/>
<path d="M151.562 233.898H168.75V314.983H151.562V233.898Z" fill="#D61917"/>
<path d="M175 233.898H184.375V314.983H175V233.898Z" fill="#D61917"/>
<path d="M187.5 233.898H193.75V314.983H187.5V233.898Z" fill="#D61917"/>
<path d="M100 0H0V99.7966H10.9375V10.9153H100V0Z" fill="#D61917"/>
<path d="M100 460H0V360.203H10.9375V449.085H100V460Z" fill="#D61917"/>
<path d="M400 0H500V99.7966H489.062V10.9153H400V0Z" fill="#D61917"/>
<path d="M400 460H500V360.203H489.062V449.085H400V460Z" fill="#D61917"/>
<path d="M168.883 377.356H164.872V367.54C163.495 368.02 162.214 368.401 161.028 368.68C159.842 368.946 158.583 369.081 157.252 369.081C154.946 369.081 153.161 368.539 151.897 367.456C150.632 366.363 150 364.805 150 362.782V352.867H154.028V361.845C154.028 363.107 154.342 364.061 154.968 364.71C155.606 365.346 156.664 365.664 158.141 365.664C159.305 365.664 160.402 365.552 161.43 365.329C162.459 365.095 163.606 364.76 164.872 364.325V352.867H168.883V377.356ZM189.242 377.356H175.345V352.867H189.242V356.25H179.373V362.899H188.622V366.268H179.373V373.955H189.242V377.356ZM213.345 377.356H208.663L198.575 364.927V377.356H194.547V352.867H198.575V364.725L208.478 352.867H212.875L202.972 364.693L213.345 377.356ZM236.122 377.356L229.056 356.904H228.905C228.939 357.361 228.978 357.986 229.022 358.78C229.067 359.572 229.106 360.422 229.139 361.326C229.173 362.23 229.191 363.096 229.191 363.922V377.356H225.531V352.867H231.188L237.986 372.414H238.086L245.119 352.867H250.758V377.356H246.914V363.721C246.914 362.973 246.927 362.163 246.948 361.292C246.981 360.422 247.016 359.595 247.048 358.812C247.094 358.031 247.127 357.406 247.15 356.937H247.016L239.681 377.356H236.122ZM272.428 377.356L270.027 370.556H260.644L258.244 377.356H253.998L263.128 352.765H267.594L276.708 377.356H272.428ZM268.986 367.105L266.653 360.405C266.564 360.114 266.436 359.706 266.267 359.182C266.1 358.646 265.931 358.104 265.764 357.557C265.595 356.999 265.456 356.53 265.344 356.149C265.233 356.608 265.092 357.121 264.925 357.691C264.767 358.25 264.611 358.773 264.455 359.265C264.309 359.757 264.197 360.136 264.119 360.405L261.769 367.105H268.986ZM287.08 352.867C290.247 352.867 292.558 353.514 294.012 354.81C295.467 356.105 296.194 357.919 296.194 360.253C296.194 361.315 296.027 362.326 295.691 363.286C295.367 364.234 294.83 365.078 294.08 365.815C293.33 366.54 292.339 367.116 291.109 367.54C289.889 367.964 288.384 368.176 286.594 368.176H283.975V377.356H279.947V352.867H287.08ZM286.812 356.201H283.975V364.827H286.173C287.439 364.827 288.513 364.682 289.397 364.392C290.281 364.089 290.952 363.615 291.411 362.966C291.87 362.319 292.098 361.465 292.098 360.405C292.098 358.986 291.669 357.931 290.806 357.239C289.956 356.547 288.625 356.201 286.812 356.201ZM319.894 377.356H315.211L305.123 364.927V377.356H301.095V352.867H305.123V364.725L315.027 352.867H319.425L309.522 364.693L319.894 377.356ZM337.048 377.356H323.15V352.867H337.048V356.25H327.18V362.899H336.427V366.268H327.18V373.955H337.048V377.356ZM350.863 377.356H346.817V356.283H339.633V352.867H358.03V356.283H350.863V377.356Z" fill="white"/>
</g>
<defs>
<clipPath id="clip0_34_90">
<rect width="500" height="460" fill="white"/>
</clipPath>
</defs>
</svg>
