<svg width="97" height="90" viewBox="0 0 97 90" fill="none" xmlns="http://www.w3.org/2000/svg">
<g clip-path="url(#clip0_156_44)">
<path d="M19.4 0H0V19.5254H2.12188V2.13559H19.4V0Z" fill="#D61917"/>
<path d="M19.4 90H0V70.4746H2.12188V87.8644H19.4V90Z" fill="#D61917"/>
<path d="M77.6 0H97V19.5254H94.8781V2.13559H77.6V0Z" fill="#D61917"/>
<path d="M77.6 90H97V70.4746H94.8781V87.8644H77.6V90Z" fill="#D61917"/>
<path d="M36.1855 61.3811V68.0917H33.9751C32.3255 68.0917 30.9757 69.4518 30.9757 71.1136C30.9757 72.7757 32.3255 74.1355 33.9751 74.1355H63.0248C64.6747 74.1355 66.0245 72.7757 66.0245 71.1136C66.0245 69.4518 64.6747 68.0917 63.0248 68.0917H60.8144V61.3811H36.1855ZM38.08 63.2894H58.9199V68.0917H38.08V63.2894ZM64.13 71.1136C64.13 71.7171 63.6238 72.2269 63.0248 72.2269H33.9751C33.3765 72.2269 32.8702 71.7171 32.8702 71.1136C32.8702 70.5102 33.3765 70.0004 33.9751 70.0004H63.0248C63.6238 70.0004 64.13 70.5102 64.13 71.1136Z" fill="black"/>
<path d="M21.9766 57.4683H75.0234C77.1074 57.4683 78.8125 55.7506 78.8125 53.651V21.2069C78.8125 19.1076 77.1074 17.3899 75.0234 17.3899H21.9766C19.8927 17.3899 18.1875 19.1076 18.1875 21.2069V53.651C18.1875 55.7506 19.8927 57.4683 21.9766 57.4683ZM20.082 21.2069C20.082 20.1546 20.9318 19.2983 21.9766 19.2983H75.0234C76.068 19.2983 76.918 20.1544 76.918 21.2069V53.651C76.918 54.7036 76.068 55.5597 75.0234 55.5597H21.9766C20.932 55.5597 20.082 54.7036 20.082 53.651V21.2069Z" fill="black"/>
<path d="M30.7165 50.8958C33.0994 50.8958 35.0385 48.9444 35.0385 46.544C35.0385 45.5446 34.689 44.6342 34.1249 43.8986L39.2656 38.7607C39.9418 39.2025 40.7439 39.4654 41.6084 39.4654C42.8152 39.4654 43.9046 38.9624 44.6891 38.1566L48.868 42.0919C48.4387 42.768 48.182 43.5661 48.182 44.4267C48.182 46.8271 50.119 48.7785 52.5021 48.7785C54.885 48.7785 56.8223 46.8274 56.8223 44.4267C56.8223 43.5206 56.5452 42.6795 56.0735 41.9818L64.1397 31.8039C64.7741 32.1727 65.5001 32.4 66.2837 32.4C68.6666 32.4 70.6038 30.4485 70.6038 28.048C70.6038 25.6475 68.6666 23.696 66.2837 23.696C63.9008 23.696 61.9617 25.6473 61.9617 28.048C61.9617 28.9671 62.2497 29.8175 62.7341 30.5207L54.6773 40.6867C54.0359 40.3063 53.2987 40.0729 52.5021 40.0729C51.6603 40.0729 50.8807 40.3264 50.216 40.7474L45.6882 36.4835C45.8322 36.0503 45.9286 35.5951 45.9286 35.1134C45.9286 32.713 43.9916 30.7614 41.6084 30.7614C39.2256 30.7614 37.2865 32.7127 37.2865 35.1134C37.2865 35.9521 37.5341 36.7285 37.9436 37.3933L32.6587 42.6759C32.0721 42.3757 31.4183 42.1902 30.7165 42.1902C28.3336 42.1902 26.3965 44.1433 26.3965 46.544C26.3965 48.9444 28.3336 50.8958 30.7165 50.8958ZM66.2834 25.6046C67.6211 25.6046 68.709 26.7005 68.709 28.048C68.709 29.3955 67.6211 30.4913 66.2834 30.4913C64.9457 30.4913 63.856 29.3954 63.856 28.048C63.856 26.7005 64.9457 25.6046 66.2834 25.6046ZM54.9274 44.4267C54.9274 45.7743 53.8395 46.8702 52.5018 46.8702C51.1641 46.8702 50.0762 45.774 50.0762 44.4267C50.0762 43.0792 51.1641 41.9815 52.5018 41.9815C53.8395 41.9815 54.9274 43.0792 54.9274 44.4267ZM41.6084 32.67C42.9458 32.67 44.0337 33.7659 44.0337 35.1134C44.0337 36.461 42.9458 37.5568 41.6084 37.5568C40.2707 37.5568 39.181 36.461 39.181 35.1134C39.181 33.7659 40.2707 32.67 41.6084 32.67ZM30.7165 44.0988C32.0542 44.0988 33.144 45.1965 33.144 46.544C33.144 47.8916 32.0542 48.9871 30.7165 48.9871C29.3789 48.9871 28.2911 47.8913 28.2911 46.544C28.2911 45.1965 29.3789 44.0988 30.7165 44.0988Z" fill="black"/>
</g>
<defs>
<clipPath id="clip0_156_44">
<rect width="97" height="90" fill="white"/>
</clipPath>
</defs>
</svg>
