<svg width="97" height="90" viewBox="0 0 97 90" fill="none" xmlns="http://www.w3.org/2000/svg">
<g clip-path="url(#clip0_156_52)">
<path d="M19.4 0H0V19.5254H2.12187V2.13559H19.4V0Z" fill="#D61917"/>
<path d="M19.4 90H0V70.4746H2.12187V87.8644H19.4V90Z" fill="#D61917"/>
<path d="M77.6 0H97V19.5254H94.8781V2.13559H77.6V0Z" fill="#D61917"/>
<path d="M77.6 90H97V70.4746H94.8781V87.8644H77.6V90Z" fill="#D61917"/>
<path d="M30.9679 76.2701C36.2562 76.2701 41.9095 74.7099 43.2171 72.1194C43.4169 71.9171 43.54 71.6395 43.54 71.3332V54.5868C43.6682 54.6746 43.8125 54.7396 43.9743 54.7671C45.4785 55.0179 47.0362 55.1448 48.604 55.1448C50.2721 55.1448 51.9017 54.9962 53.4603 54.7149V71.3332C53.4603 71.6459 53.5916 71.9281 53.7983 72.1301C54.808 74.0911 58.3 75.3441 61.6111 75.8933C63.1149 76.1453 64.6723 76.2713 66.2398 76.2713C68.0752 76.2713 69.8664 76.0998 71.5636 75.7612C75.2399 75.0271 77.7091 73.7025 78.4982 72.1063C78.6919 71.9052 78.8125 71.634 78.8125 71.3332V40.2005C78.8125 39.9958 78.7437 39.8143 78.6467 39.6498C77.7631 36.7533 71.8255 34.8545 66.2398 34.8545C60.7023 34.8545 54.6013 36.7768 53.6443 39.6211C53.5376 39.792 53.46 39.9836 53.46 40.2005V52.4594C50.6034 53.0244 47.3054 53.0699 44.3326 52.5747C44.0425 52.5204 43.7646 52.5952 43.54 52.7483V40.2005C43.54 39.9958 43.4702 39.8143 43.3745 39.6498C42.4902 36.7533 36.5526 34.8545 30.9676 34.8545C25.4305 34.8545 19.3286 36.7768 18.3717 39.6211C18.2646 39.792 18.1875 39.9836 18.1875 40.2005V71.3332C18.1875 71.6425 18.3146 71.9217 18.5168 72.1236C19.8487 74.712 25.5952 76.2701 30.9679 76.2701ZM66.2398 37.0779C72.5596 37.0779 76.5669 39.41 76.5669 40.3936C76.5669 40.4647 76.5951 40.5272 76.6079 40.595V70.7727C76.5951 70.8414 76.5669 70.903 76.5669 70.9747C76.5669 71.4223 75.004 72.8055 71.1353 73.5786C68.2698 74.1518 64.9567 74.1952 61.9685 73.6982C57.568 72.9663 55.7047 71.4525 55.7047 70.975C55.7047 70.9033 55.6777 70.8414 55.6637 70.773V40.5962C55.6777 40.5282 55.7047 40.4662 55.7047 40.3945C55.7059 39.4375 59.9039 37.0779 66.2398 37.0779ZM30.9679 37.0779C37.2871 37.0779 41.2947 39.41 41.2947 40.3936C41.2947 40.4647 41.322 40.5272 41.3353 40.595V70.7727C41.322 70.8414 41.2947 70.903 41.2947 70.9747C41.2947 71.8869 37.2871 74.0466 30.9679 74.0466C24.6307 74.0466 20.4322 71.861 20.4322 70.9747C20.4322 70.9033 20.4048 70.8414 20.3914 70.7727V40.5962C20.4048 40.5282 20.4322 40.4662 20.4322 40.3945C20.4333 39.4375 24.632 37.0779 30.9679 37.0779Z" fill="black"/>
<path d="M30.9676 45.8404C31.9197 45.8404 40.275 45.745 40.275 42.4174C40.275 41.8036 39.7809 41.3057 39.1729 41.3057C38.6127 41.3057 38.151 41.7258 38.0804 42.2703C37.63 42.7521 35.144 43.6161 30.9679 43.6161C26.7915 43.6161 24.3054 42.7518 23.8548 42.2703C23.7843 41.7258 23.3225 41.3057 22.7621 41.3057C22.154 41.3057 21.6599 41.8036 21.6599 42.4174C21.6597 45.7437 30.015 45.8404 30.9676 45.8404Z" fill="black"/>
<path d="M31.0437 41.3054C32.9643 41.3054 34.5211 40.7389 34.5211 40.0399C34.5211 39.341 32.9643 38.7744 31.0437 38.7744C29.1232 38.7744 27.5663 39.341 27.5663 40.0399C27.5663 40.7389 29.1232 41.3054 31.0437 41.3054Z" fill="black"/>
<path d="M39.2962 20.1802C38.6878 20.1802 38.1937 20.678 38.1937 21.292C38.1937 24.6183 46.5491 24.7155 47.5018 24.7155C48.4539 24.7155 56.8089 24.6194 56.8089 21.292C56.8089 20.678 56.3148 20.1802 55.7068 20.1802C55.146 20.1802 54.6852 20.6003 54.6143 21.1449C54.1642 21.6265 51.6779 22.4906 47.5018 22.4906C43.3253 22.4906 40.8391 21.6263 40.3887 21.1449C40.318 20.6016 39.8564 20.1802 39.2962 20.1802Z" fill="black"/>
<path d="M58.9718 34.6408C59.5799 34.6408 60.074 34.1423 60.074 33.5291V19.0747C60.074 18.8702 60.0049 18.6887 59.9082 18.5243C59.0245 15.6279 53.0878 13.7288 47.5019 13.7288C41.9647 13.7288 35.8628 15.6512 34.9061 18.4954C34.7988 18.6664 34.7218 18.8581 34.7218 19.0747V33.5291C34.7218 34.1423 35.2159 34.6408 35.824 34.6408C36.432 34.6408 36.9261 34.1423 36.9261 33.5291V19.4706C36.9398 19.4027 36.9671 19.3408 36.9671 19.2691C36.9671 18.3131 41.1656 15.9536 47.5028 15.9536C53.8217 15.9536 57.8293 18.2853 57.8293 19.2691C57.8293 19.3408 57.8563 19.4027 57.8702 19.4706V33.5291C57.8693 34.1423 58.3634 34.6408 58.9718 34.6408Z" fill="black"/>
<path d="M47.5779 17.6492C49.4982 17.6492 51.0557 18.216 51.0557 18.9147C51.0557 19.6135 49.4979 20.1802 47.5779 20.1802C45.657 20.1802 44.0999 19.6135 44.0999 18.9147C44.0999 18.216 45.657 17.6492 47.5779 17.6492Z" fill="black"/>
<path d="M66.2398 45.8404C67.1925 45.8404 75.5476 45.745 75.5476 42.4174C75.5476 41.8036 75.0535 41.3057 74.4454 41.3057C73.8846 41.3057 73.4239 41.7258 73.353 42.2703C72.9028 42.7521 70.4166 43.6161 66.2398 43.6161C62.0634 43.6161 59.5777 42.7518 59.1267 42.2703C59.0567 41.7258 58.595 41.3057 58.0351 41.3057C57.4262 41.3057 56.933 41.8036 56.933 42.4174C56.9327 45.7437 65.2883 45.8404 66.2398 45.8404Z" fill="black"/>
<path d="M66.3159 38.7747C68.2365 38.7747 69.7942 39.3415 69.7942 40.0401C69.7942 40.7388 68.2365 41.3056 66.3159 41.3056C64.3947 41.3056 62.8381 40.7388 62.8381 40.0401C62.8381 39.3412 64.3947 38.7747 66.3159 38.7747Z" fill="black"/>
</g>
<defs>
<clipPath id="clip0_156_52">
<rect width="97" height="90" fill="white"/>
</clipPath>
</defs>
</svg>
