<svg width="97" height="90" viewBox="0 0 97 90" fill="none" xmlns="http://www.w3.org/2000/svg">
<g clip-path="url(#clip0_156_24)">
<path d="M19.4 0H0V19.5254H2.12188V2.13559H19.4V0Z" fill="#D61917"/>
<path d="M19.4 90H0V70.4746H2.12188V87.8644H19.4V90Z" fill="#D61917"/>
<path d="M77.6 0H97V19.5254H94.8781V2.13559H77.6V0Z" fill="#D61917"/>
<path d="M77.6 90H97V70.4746H94.8781V87.8644H77.6V90Z" fill="#D61917"/>
<path d="M66.2468 38.4609C66.0098 38.3611 65.7861 38.3169 65.6063 38.28C65.5296 38.2641 65.4499 38.2562 65.3775 38.2257C65.0674 38.096 64.6539 37.9465 64.2086 37.9465C63.3298 37.9465 62.6672 38.5106 62.4335 39.4564C62.2256 40.3021 62.4499 40.9001 62.6772 41.253C62.9149 41.624 63.3987 42.1027 64.349 42.2757C64.5939 42.3205 64.844 42.3385 65.0922 42.3547L65.5323 42.3745L65.6584 42.3568C65.6875 42.3526 65.7179 42.3535 65.7497 42.3535L66.0931 42.359C67.5751 42.359 67.8931 41.3092 67.9601 40.8589C68.0692 40.1367 67.8604 39.1348 66.2468 38.4609Z" fill="black"/>
<path d="M58.0045 16.3169H48.2757C45.9616 16.3169 44.0862 18.2045 44.0862 20.5337C44.0862 22.8634 45.9616 24.7504 48.2757 24.7504H58.0045C60.3176 24.7504 62.1937 22.8628 62.1937 20.5337C62.1949 18.2045 60.3176 16.3169 58.0045 16.3169Z" fill="black"/>
<path d="M76.9459 24.758C76.68 24.4547 70.3775 17.3051 65.8621 14.9786C62.6602 13.3282 61.1494 12.6921 58.5113 12.1815C56.4677 11.786 54.6641 11.5933 52.9951 11.5933C50.4015 11.5933 48.0581 12.0539 45.8319 13.002C41.8519 14.6957 40.0404 18.6565 41.2174 23.0927C42.1126 26.4696 44.7464 28.1783 46.8613 29.5502C48.7422 30.7712 50.4197 31.4918 52.139 31.8158C53.5704 32.0852 54.4849 32.8452 54.9378 34.1393C55.4107 35.4869 55.2636 36.9485 55.1094 38.4956L55.0939 38.6467C55.0605 38.9877 54.8875 39.6946 54.7044 40.443C53.9845 43.3813 53.5728 45.3905 54.3594 46.523C54.6883 46.9977 55.1976 47.2586 55.7899 47.2586C56.2282 47.2586 56.6407 47.1185 57.0233 46.9553C57.2579 51.5508 57.458 56.0972 57.6686 60.8898L57.8911 65.9099C57.8839 66.0689 57.8969 66.2162 57.9084 66.349C57.9184 66.4554 57.9345 66.6321 57.9257 66.6696C55.8841 68.9126 54.5246 70.6208 54.2442 73.8061C53.9851 76.7505 55.327 79.0579 57.7474 79.8282C58.4604 80.0549 59.1991 80.1696 59.9451 80.1696C60.3513 80.1696 60.7678 80.1351 61.1834 80.0683C61.5747 80.0042 61.9542 79.9152 62.3292 79.816L64.418 79.0862C65.3986 78.66 66.3028 78.1612 67.1219 77.6801C68.8567 76.6605 70.0328 75.0729 70.7179 72.8268C70.8167 72.5059 70.92 72.1837 71.0243 71.8588C71.2799 71.0656 71.543 70.247 71.7348 69.4181C72.452 66.32 72.6612 63.1584 72.8634 60.1017C72.9322 59.0712 73.0004 58.0403 73.0871 57.0124C73.4123 53.1781 73.4275 45.7008 73.4281 45.3844L73.4254 45.3039C73.2617 42.9548 73.295 40.5431 73.3284 38.2101C73.3472 36.8985 73.3666 35.5863 73.3529 34.2757L73.3514 34.183C73.3484 33.9276 73.3426 33.5008 73.426 33.4126C73.9161 32.886 74.3232 32.3229 74.7173 31.7771C75.222 31.079 75.6979 30.4208 76.2948 29.9102C77.5715 28.8172 78.1365 26.244 76.9459 24.758ZM70.8728 56.8199C70.7836 57.8609 70.7148 58.9061 70.6451 59.9501C70.4478 62.9183 70.2453 65.9865 69.5696 68.9077C69.4002 69.6439 69.151 70.4167 68.9091 71.1659C68.8012 71.5012 68.693 71.8353 68.5933 72.166C68.0719 73.8733 67.2483 75.0097 66.0003 75.7425C64.4517 76.6535 62.7526 77.5401 60.8296 77.8534C59.9939 77.9892 59.1885 77.9336 58.4201 77.6902C56.4167 77.0516 56.3834 74.898 56.4625 74.0017C56.6862 71.4576 57.735 70.1933 59.5689 68.1801C60.244 67.4396 60.1643 66.5631 60.1267 66.1436C60.1252 66.1214 60.1224 66.1024 60.12 66.0851C61.4377 61.7071 65.713 51.2515 71.1547 49.9211C71.1095 52.2623 71.0271 54.9989 70.8728 56.8199ZM74.8555 28.2013C74.0571 28.8843 73.4793 29.6836 72.9216 30.4564C72.5509 30.9692 72.2004 31.4531 71.8049 31.878C71.1098 32.6237 71.1213 33.5768 71.1298 34.2086V34.2961C71.1444 35.5891 71.1256 36.883 71.1071 38.1759C71.0731 40.5412 71.0371 42.9874 71.2059 45.4177C71.205 45.6072 71.2023 46.4562 71.1892 47.6399C65.8918 48.5009 62.0218 55.3592 59.876 60.3556C59.6535 55.3372 59.4443 50.5742 59.1915 45.7325C59.1482 44.9131 58.5744 44.3414 57.7966 44.3414C57.344 44.3414 56.9296 44.5348 56.4913 44.7401C56.3952 44.785 56.2718 44.8423 56.153 44.8939C56.14 43.9444 56.6353 41.9214 56.8675 40.9778C57.0875 40.0784 57.2612 39.3676 57.3106 38.8681L57.3267 38.7183C57.4974 36.9949 57.6765 35.212 57.0396 33.3931C56.3185 31.338 54.7668 30.0303 52.5504 29.613C51.1236 29.3443 49.6998 28.7263 48.0687 27.6677C45.7113 26.138 43.9944 24.8728 43.3681 22.5151C42.6724 19.894 43.1835 16.5613 46.6991 15.0644C48.6458 14.2359 50.7049 13.8335 52.9966 13.8335C54.5213 13.8335 56.1879 14.0129 58.0912 14.3813C60.4813 14.8441 61.8096 15.4062 64.8482 16.9724C68.9888 19.1065 75.2162 26.1705 75.2453 26.2027C75.5321 26.5593 75.3539 27.7752 74.8555 28.2013Z" fill="black"/>
<path d="M18.4583 41.1965H16.975V63.1401H18.4583V41.1965Z" fill="black"/>
<path d="M35.7021 41.1965H34.2189V63.1401H35.7021V41.1965Z" fill="black"/>
<path d="M21.2396 41.1965H20.4979V63.1401H21.2396V41.1965Z" fill="black"/>
<path d="M37.0616 41.1965H36.3198V63.1401H37.0616V41.1965Z" fill="black"/>
<path d="M32.6117 41.1965H31.8699V63.1401H32.6117V41.1965Z" fill="black"/>
<path d="M28.9657 41.1965H28.224V63.1401H28.9657V41.1965Z" fill="black"/>
<path d="M24.5764 41.1965H23.0937V63.1401H24.5764V41.1965Z" fill="black"/>
<path d="M31.0661 41.1965H29.5833V63.1401H31.0661V41.1965Z" fill="black"/>
<path d="M25.8128 41.1965H25.0717V63.1401H25.8128V41.1965Z" fill="black"/>
<path d="M39.0395 41.1965H38.298V63.1401H39.0395V41.1965Z" fill="black"/>
<path d="M42.3763 41.1965H40.8937V63.1401H42.3763V41.1965Z" fill="black"/>
<path d="M43.6127 41.1965H42.8719V63.1401H43.6127V41.1965Z" fill="black"/>
</g>
<defs>
<clipPath id="clip0_156_24">
<rect width="97" height="90" fill="white"/>
</clipPath>
</defs>
</svg>
