<svg width="30" height="30" viewBox="0 0 30 30" fill="none" xmlns="http://www.w3.org/2000/svg">
<path d="M15 0C23.2843 0 30 6.71573 30 15C30 23.2843 23.2843 30 15 30C6.71573 30 0 23.2843 0 15C0 6.71573 6.71573 0 15 0ZM13.6047 8.37209C13.0267 8.37209 12.5581 8.84063 12.5581 9.4186V17.7907C12.5581 18.3687 13.0267 18.8372 13.6047 18.8372H21.9767C22.5547 18.8372 23.0233 18.3687 23.0233 17.7907C23.0233 17.2127 22.5547 16.7442 21.9767 16.7442H14.6512V9.4186C14.6512 8.84063 14.1826 8.37209 13.6047 8.37209Z" fill="#D61917"/>
</svg>
