<svg width="30" height="30" viewBox="0 0 30 30" fill="none" xmlns="http://www.w3.org/2000/svg">
<path d="M29.6784 22.7518C28.5616 20.6404 24.6836 18.351 24.5129 18.2509C24.0146 17.9672 23.4946 17.817 23.008 17.817C22.2844 17.817 21.6921 18.1485 21.3334 18.7515C20.7661 19.4301 20.0626 20.2232 19.8919 20.3462C18.5705 21.2428 17.536 21.141 16.3915 19.9963L10.0036 13.6069C8.86629 12.4695 8.76173 11.4221 9.65212 10.1077C9.7767 9.93585 10.5698 9.23167 11.2483 8.66376C11.6809 8.40623 11.9779 8.02355 12.1081 7.55409C12.281 6.92945 12.1537 6.19468 11.7455 5.47882C11.6492 5.31418 9.35904 1.43506 7.24902 0.318717C6.85527 0.110133 6.41146 0 5.96655 0C5.23355 0 4.54393 0.2859 4.0256 0.803745L2.6141 2.21489C0.381736 4.44702 -0.426344 6.97729 0.210999 9.73505C0.742674 12.0334 2.29209 14.4791 4.817 17.0038L12.9951 25.1831C16.1907 28.3792 19.2373 30 22.0503 30C22.0503 30 22.0503 30 22.0508 30C24.1197 30 26.0484 29.1206 27.7819 27.3869L29.1929 25.9757C30.0504 25.1186 30.2451 23.8226 29.6784 22.7518Z" fill="#D61917"/>
</svg>
