<svg width="27" height="30" viewBox="0 0 27 30" fill="none" xmlns="http://www.w3.org/2000/svg">
<path d="M24.4182 4.45414H20.5692V3.06224C20.5692 1.37374 19.1965 0 17.5092 0H9.49095C7.80362 0 6.43094 1.37374 6.43094 3.06224V4.45408H2.58194C1.15821 4.45408 0 5.61313 0 7.0379V8.91197C0 10.3367 1.15821 11.4958 2.58194 11.4958H2.76064L5.19644 29.1519C5.26354 29.6379 5.67873 30 6.1691 30H20.8308C21.3212 30 21.7365 29.6379 21.8035 29.1519L24.2393 11.4958H24.4181C25.8418 11.4958 27 10.3367 27 8.91197V7.0379C27.0002 5.61319 25.8419 4.45414 24.4182 4.45414ZM8.39469 3.06224C8.39469 2.45731 8.88647 1.96512 9.49101 1.96512H17.5092C18.1137 1.96512 18.6055 2.45726 18.6055 3.06224V4.45408H8.39475V3.06224H8.39469ZM19.9753 28.0349H7.02477L4.74302 11.4958H22.2571L19.9753 28.0349ZM25.0364 8.91203C25.0364 9.25316 24.7591 9.53066 24.4182 9.53066C23.6593 9.53066 3.38609 9.53066 2.58194 9.53066C2.24106 9.53066 1.96376 9.25316 1.96376 8.91203V7.0379C1.96376 6.69676 2.24106 6.41926 2.58194 6.41926C2.90234 6.41926 23.6602 6.41926 24.4182 6.41926C24.7591 6.41926 25.0364 6.69676 25.0364 7.0379V8.91203Z" fill="black"/>
<path d="M13.4496 13.5073C12.9074 13.5073 12.4678 13.9472 12.4678 14.4899V24.5823C12.4678 25.1249 12.9074 25.5649 13.4496 25.5649C13.9919 25.5649 14.4315 25.1249 14.4315 24.5823V14.4899C14.4315 13.9472 13.9919 13.5073 13.4496 13.5073Z" fill="black"/>
<path d="M10.7637 24.4423L9.31143 14.3499C9.23414 13.8127 8.73687 13.4397 8.19971 13.5174C7.66297 13.5947 7.29053 14.0928 7.36782 14.6299L8.82007 24.7223C8.89741 25.26 9.39569 25.6321 9.93178 25.5548C10.4685 25.4775 10.841 24.9794 10.7637 24.4423Z" fill="black"/>
<path d="M18.8005 13.5174C18.2646 13.4401 17.766 13.8129 17.6888 14.3499L16.2365 24.4422C16.1592 24.9793 16.5316 25.4774 17.0684 25.5547C17.6045 25.6321 18.1028 25.2597 18.1801 24.7222L19.6324 14.6299C19.7097 14.0929 19.3373 13.5947 18.8005 13.5174Z" fill="black"/>
</svg>
