<svg width="200" height="190" viewBox="0 0 200 190" fill="none" xmlns="http://www.w3.org/2000/svg">
<path d="M99.3217 72.0715L135.983 103.337L139.585 100.271L102.92 69.0091L139.585 37.7403L135.983 34.6779L99.3217 65.9432L62.6595 34.6779L59.0617 37.7403L95.7341 69.0091L59.986 99.4904L59.0617 100.271L62.6595 103.337L99.3217 72.0715Z" fill="#010002"/>
<path d="M185.952 0.92271L185.855 0H14.1363L0.112855 130.227L0 131.369H0.360009V190H199.624V131.369H200L185.952 0.92271ZM20.0002 6.57943H179.99L192.721 124.789H138.534V128.078C138.534 149.473 121.248 166.883 99.9955 166.883C78.7392 166.883 61.452 149.473 61.452 128.078V124.789H7.27014L20.0002 6.57943ZM193.089 183.429H6.89433V131.369H55.0339C56.7177 155.01 76.3636 173.461 99.9955 173.461C123.623 173.461 143.264 155.013 144.94 131.369H193.084V183.429H193.089Z" fill="#010002"/>
</svg>
