<svg width="15" height="15" viewBox="0 0 15 15" fill="none" xmlns="http://www.w3.org/2000/svg">
<path d="M7.5 0C3.36905 0 0 3.36905 0 7.5C0 11.631 3.36905 15 7.5 15C11.631 15 15 11.631 15 7.5C15 3.36905 11.631 0 7.5 0ZM7.5 14.0476C3.89286 14.0476 0.952381 11.1071 0.952381 7.5C0.952381 3.89286 3.89286 0.952381 7.5 0.952381C11.1071 0.952381 14.0476 3.89286 14.0476 7.5C14.0476 11.1071 11.1071 14.0476 7.5 14.0476Z" fill="black"/>
<path d="M7.97619 6.36905H7.02381V11.131H7.97619V6.36905Z" fill="black"/>
<path d="M7.97619 4.10714H7.02381V5.05952H7.97619V4.10714Z" fill="black"/>
</svg>
