<svg width="15" height="15" viewBox="0 0 15 15" fill="none" xmlns="http://www.w3.org/2000/svg">
<path d="M13.2698 15H13.1718C1.83943 14.3481 0.23041 4.78269 0.00549307 1.86346C-0.0126299 1.63649 0.0141949 1.40817 0.0844303 1.19158C0.154666 0.974998 0.266931 0.774406 0.414795 0.601299C0.562658 0.428192 0.743213 0.285974 0.946114 0.182792C1.14902 0.0796102 1.37027 0.0174933 1.59721 5.40918e-07H4.77489C5.0059 -0.000223169 5.23165 0.0689484 5.4229 0.198555C5.61416 0.328162 5.7621 0.512233 5.84757 0.726924L6.72417 2.88462C6.80858 3.09435 6.82952 3.32428 6.78441 3.54582C6.73929 3.76737 6.63011 3.97077 6.47042 4.13077L5.24203 5.37115C5.43391 6.46197 5.9561 7.4675 6.73795 8.25171C7.51981 9.03591 8.52359 9.56094 9.61349 9.75577L10.865 8.51539C11.0273 8.3574 11.2325 8.25072 11.4551 8.20866C11.6776 8.16659 11.9076 8.191 12.1164 8.27885L14.2906 9.15C14.502 9.2382 14.6823 9.38736 14.8087 9.57846C14.935 9.76957 15.0016 9.99397 15 10.2231V13.2692C15 13.7283 14.8177 14.1685 14.4932 14.4931C14.1688 14.8177 13.7287 15 13.2698 15ZM1.73563 1.15385C1.58267 1.15385 1.43598 1.21463 1.32783 1.32282C1.21967 1.43102 1.15891 1.57776 1.15891 1.73077V1.77692C1.4242 5.19231 3.1255 13.2692 13.2352 13.8462C13.311 13.8508 13.3869 13.8405 13.4587 13.8158C13.5305 13.791 13.5967 13.7524 13.6535 13.702C13.7102 13.6516 13.7565 13.5905 13.7897 13.5222C13.8228 13.4538 13.8421 13.3797 13.8465 13.3038V10.2231L11.6724 9.35192L10.0172 10.9962L9.74037 10.9615C4.72299 10.3327 4.04247 5.31346 4.04247 5.26154L4.00786 4.98462L5.64572 3.32885L4.78066 1.15385H1.73563Z" fill="black"/>
</svg>
