<svg width="17" height="16" viewBox="0 0 17 16" fill="none" xmlns="http://www.w3.org/2000/svg">
<path d="M16.6854 3.46081L10.614 0.0761692C10.5244 0.0262007 10.4237 0 10.3214 0C10.2191 0 10.1185 0.0262007 10.0289 0.0761692L3.95745 3.46081C3.86226 3.51394 3.78288 3.59198 3.72759 3.68681C3.67231 3.78163 3.64314 3.88975 3.64314 3.9999C3.64314 4.11004 3.67231 4.21816 3.72759 4.31299C3.78288 4.40781 3.86226 4.48585 3.95745 4.53898L9.71431 7.74842V14.3437L7.8709 13.3165L7.28574 14.3946L10.0289 15.9237C10.1185 15.9737 10.2191 16 10.3214 16C10.4238 16 10.5244 15.9737 10.614 15.9237L16.6854 12.539C16.7807 12.486 16.8601 12.4079 16.9154 12.3131C16.9708 12.2183 17 12.1101 17 12V3.9999C17 3.88973 16.9708 3.78159 16.9154 3.68676C16.8601 3.59194 16.7807 3.5139 16.6854 3.46081ZM10.3214 1.31778L15.1329 3.9999L10.3214 6.68201L5.50997 3.9999L10.3214 1.31778ZM15.7857 11.6361L10.9286 14.3438V7.74842L15.7857 5.04071V11.6361Z" fill="black"/>
<path d="M0 7.99992H4.85713V6.76914H0V7.99992Z" fill="black"/>
<path d="M1.21428 12.923H6.07141V11.6923H1.21428V12.923Z" fill="black"/>
<path d="M2.42856 10.4615H7.28569V9.2307H2.42856V10.4615Z" fill="black"/>
</svg>
