<svg width="17" height="15" viewBox="0 0 17 15" fill="none" xmlns="http://www.w3.org/2000/svg">
<path d="M14.1557 8.18523C13.8786 8.18523 13.6541 8.41507 13.6541 8.69858V13.9733H10.887V8.69858C10.887 8.41507 10.6625 8.18523 10.3854 8.18523H6.61474C6.33765 8.18523 6.11313 8.41507 6.11313 8.69858V13.9733H3.34578V8.69858C3.34578 8.41507 3.12126 8.18523 2.84417 8.18523C2.56708 8.18523 2.34256 8.41507 2.34256 8.69858V14.4867C2.34256 14.7702 2.56708 15 2.84417 15H14.1557C14.4328 15 14.6573 14.7702 14.6573 14.4867V8.69858C14.6573 8.41507 14.4328 8.18523 14.1557 8.18523ZM7.11635 13.9733V9.21192H9.88383V13.9733H7.11635Z" fill="black"/>
<path d="M16.8531 8.33553L8.85433 0.150333C8.65851 -0.0501454 8.34088 -0.0500769 8.14492 0.150333L0.146922 8.33553C-0.0489738 8.53601 -0.0489738 8.86106 0.146922 9.06147C0.342884 9.26195 0.660436 9.26195 0.856332 9.06147L8.49966 1.23931L16.1437 9.06154C16.2416 9.16175 16.3701 9.21185 16.4984 9.21185C16.6267 9.21185 16.7552 9.16175 16.8531 9.06147C17.049 8.86106 17.049 8.53601 16.8531 8.33553Z" fill="black"/>
</svg>
