<svg width="16" height="15" viewBox="0 0 16 15" fill="none" xmlns="http://www.w3.org/2000/svg">
<path d="M15.9097 7.29748L13.2434 4.73426C13.1762 4.67371 13.0876 4.64002 12.9955 4.64002C12.9034 4.64002 12.8147 4.67371 12.7475 4.73426L12.2516 5.21358C12.1874 5.2776 12.1515 5.36305 12.1515 5.45196C12.1515 5.54088 12.1874 5.62633 12.2516 5.69034L13.0648 6.46956C13.0858 6.49229 13.1019 6.51883 13.1121 6.54762C13.1222 6.5764 13.1263 6.60685 13.1241 6.63718C13.1219 6.66751 13.1133 6.6971 13.099 6.72422C13.0847 6.75134 13.0649 6.77543 13.0408 6.79509C13.0017 6.82871 12.9519 6.84859 12.8995 6.85148H5.5993L9.95329 2.68625C9.97694 2.66606 10.0045 2.65062 10.0345 2.64083C10.0644 2.63104 10.0961 2.62711 10.1276 2.62926C10.1592 2.63141 10.19 2.6396 10.2182 2.65335C10.2464 2.66709 10.2715 2.68613 10.2919 2.70932C10.3269 2.74692 10.3476 2.79481 10.3506 2.84517V3.98837C10.3462 4.06777 10.3745 4.14564 10.4294 4.20513C10.4843 4.26461 10.5613 4.30093 10.6438 4.30621H11.3664C11.4487 4.31113 11.5298 4.28449 11.5917 4.23213C11.6537 4.17977 11.6915 4.10595 11.697 4.02681V0.317839C11.6995 0.27844 11.694 0.23895 11.6806 0.201633C11.6672 0.164316 11.6463 0.129906 11.619 0.100377C11.5918 0.070848 11.5587 0.0467807 11.5218 0.0295557C11.4848 0.0123306 11.4447 0.00228691 11.4037 0H7.60699C7.516 0.00774235 7.43141 0.048209 7.37012 0.113312C7.30883 0.178414 7.27535 0.263357 7.27637 0.351161V0.989402C7.27422 1.02913 7.28024 1.06888 7.29409 1.10637C7.30794 1.14387 7.32934 1.17836 7.35708 1.20789C7.38482 1.23741 7.41835 1.26138 7.45574 1.27843C7.49313 1.29548 7.53366 1.30527 7.57499 1.30724H8.7988C8.82962 1.30791 8.85999 1.3144 8.8882 1.32636C8.9164 1.33831 8.94187 1.35549 8.96317 1.37691C8.98446 1.39834 9.00115 1.42358 9.0123 1.45121C9.02344 1.47884 9.02881 1.50831 9.0281 1.53793C9.02626 1.59331 9.00351 1.64616 8.96411 1.6866L3.60494 6.82072H0.330787C0.285963 6.82205 0.241849 6.83185 0.200969 6.84958C0.160089 6.8673 0.123243 6.8926 0.0925387 6.92402C0.061834 6.95544 0.0378725 6.99238 0.0220235 7.03271C0.0061746 7.07304 -0.00125085 7.11598 0.000171773 7.15907V7.83576C0.0058016 7.92669 0.0457377 8.01252 0.112493 8.07717C0.179248 8.14182 0.268239 8.18084 0.362782 8.18692H3.6716L9.0041 13.3134C9.02461 13.3364 9.04019 13.3631 9.04996 13.3919C9.05972 13.4208 9.06347 13.4512 9.06099 13.4814C9.05851 13.5117 9.04986 13.5411 9.03552 13.5682C9.02119 13.5952 9.00145 13.6192 8.97744 13.6389C8.93889 13.6714 8.89001 13.6904 8.8388 13.6927H7.63898C7.598 13.6903 7.55692 13.6957 7.51811 13.7085C7.47929 13.7214 7.4435 13.7415 7.41278 13.7677C7.38206 13.7939 7.35703 13.8257 7.33911 13.8612C7.32119 13.8967 7.31075 13.9353 7.30837 13.9747C7.3057 13.9865 7.3057 13.9987 7.30837 14.0105V14.6488C7.31239 14.7352 7.34761 14.8175 7.40795 14.8816C7.4683 14.9456 7.54999 14.9875 7.63898 14.9999H11.4117C11.4934 15.0014 11.5724 14.9722 11.6321 14.9187C11.6918 14.8651 11.7275 14.7913 11.7317 14.7129V11.0167C11.7338 10.977 11.7278 10.9372 11.714 10.8997C11.7001 10.8622 11.6787 10.8277 11.651 10.7982C11.6232 10.7687 11.5897 10.7447 11.5523 10.7277C11.5149 10.7106 11.4744 10.7008 11.4331 10.6989H10.7132C10.6308 10.6939 10.5498 10.7206 10.4879 10.7729C10.4259 10.8253 10.388 10.8991 10.3826 10.9783V12.1599C10.3822 12.1895 10.3758 12.2188 10.3637 12.246C10.3516 12.2733 10.334 12.2979 10.312 12.3187C10.2899 12.3394 10.2639 12.3557 10.2353 12.3667C10.2067 12.3777 10.1761 12.3832 10.1453 12.3829C10.0855 12.3814 10.0284 12.3586 9.98528 12.3188L5.62063 8.18692H12.9315C12.9761 8.18911 13.0193 8.20338 13.0558 8.22809C13.0924 8.25281 13.121 8.28695 13.1383 8.3266C13.1556 8.36625 13.1608 8.40978 13.1535 8.45219C13.1462 8.49459 13.1265 8.53414 13.0968 8.56627L12.2383 9.36087C12.1739 9.42531 12.138 9.51119 12.138 9.60053C12.138 9.68987 12.1739 9.77575 12.2383 9.84019L12.7342 10.3144C12.8008 10.3761 12.8897 10.4106 12.9822 10.4106C13.0746 10.4106 13.1635 10.3761 13.2301 10.3144L15.8964 7.77168C15.9604 7.70884 15.9974 7.62504 15.9999 7.53709C16.0023 7.44915 15.9701 7.36355 15.9097 7.29748Z" fill="black"/>
</svg>
