<svg width="15" height="15" viewBox="0 0 15 15" fill="none" xmlns="http://www.w3.org/2000/svg">
<path d="M2.60634 11.9472C1.75755 11.9472 1.067 12.6319 1.067 13.4736C1.067 14.3153 1.75752 15 2.60634 15C3.45512 15 4.14565 14.3153 4.14565 13.4736C4.14565 12.6319 3.45512 11.9472 2.60634 11.9472ZM2.60634 14.0565C2.2822 14.0565 2.01848 13.795 2.01848 13.4736C2.01848 13.1522 2.28217 12.8907 2.60634 12.8907C2.93047 12.8907 3.19416 13.1522 3.19416 13.4736C3.19416 13.795 2.93047 14.0565 2.60634 14.0565Z" fill="black"/>
<path d="M10.8059 11.9472C9.95714 11.9472 9.26662 12.6319 9.26662 13.4736C9.26662 14.3153 9.95714 15 10.8059 15C11.6547 15 12.3453 14.3153 12.3453 13.4736C12.3453 12.6319 11.6547 11.9472 10.8059 11.9472ZM10.8059 14.0565C10.4818 14.0565 10.2181 13.795 10.2181 13.4736C10.2181 13.1522 10.4818 12.8907 10.8059 12.8907C11.1301 12.8907 11.3938 13.1522 11.3938 13.4736C11.3938 13.795 11.1301 14.0565 10.8059 14.0565Z" fill="black"/>
<path d="M13.0456 0L12.7336 1.88702H0L0.911394 7.4185C1.03965 8.19438 1.76119 8.80215 2.5541 8.80215H11.5906L11.3826 10.0602H1.54277V11.0037H12.1908L13.8537 0.943509H15V0H13.0456ZM11.7465 7.85864H2.5541C2.23142 7.85864 1.90255 7.58163 1.85038 7.26609L1.11955 2.83053H12.5777L11.7465 7.85864Z" fill="black"/>
</svg>
