<svg width="211" height="190" viewBox="0 0 211 190" fill="none" xmlns="http://www.w3.org/2000/svg">
<path d="M204.297 109.338C209.927 105.851 211 100.524 211 96.9773C211 87.7412 203.478 77.4074 193.417 77.4074H144.204C142.439 77.3864 133.633 76.7848 133.633 66.8519C133.633 64.9098 132.062 63.3335 130.117 63.3335C128.172 63.3335 126.6 64.9098 126.6 66.8519C126.6 80.7675 138.104 84.4446 144.184 84.4446H193.417C199.262 84.4446 203.967 91.302 203.967 96.9777C203.967 98.8072 203.967 104.377 193.034 105.577C191.177 105.781 189.806 107.399 189.908 109.268C190.006 111.133 191.55 112.593 193.417 112.593C199.234 112.593 203.967 117.329 203.967 123.148C203.967 128.968 199.234 133.704 193.417 133.704H186.384C184.439 133.704 182.867 135.28 182.867 137.222C182.867 139.164 184.439 140.741 186.384 140.741C192.2 140.741 196.934 145.476 196.934 151.296C196.934 157.116 192.2 161.852 186.384 161.852H175.834C173.889 161.852 172.317 163.428 172.317 165.37C172.317 167.312 173.889 168.888 175.834 168.888C179.516 168.888 182.867 172.241 182.867 175.926C182.867 179.476 179.386 182.963 175.834 182.963H123.084C108.402 182.963 103.12 180.046 97.0007 176.672C91.8275 173.818 85.9619 170.584 74.3499 168.924C72.4262 168.646 70.6434 169.986 70.3689 171.908C70.0945 173.832 71.4276 175.616 73.3509 175.891C83.6969 177.368 88.7329 180.148 93.6069 182.836C99.9934 186.358 106.59 190 123.083 190H175.833C183.197 190 189.9 183.29 189.9 175.926C189.9 173.358 189.168 170.923 187.91 168.822C196.891 168.048 203.967 160.483 203.967 151.296C203.967 146.831 202.293 142.746 199.543 139.639C206.228 137.145 211 130.695 211 123.148C211 117.554 208.376 112.561 204.297 109.338Z" fill="black"/>
<path d="M31.65 172.407C35.5288 172.407 38.6835 169.251 38.6835 165.37C38.6835 161.489 35.5288 158.333 31.65 158.333C27.7712 158.333 24.6165 161.489 24.6165 165.37C24.6165 169.252 27.7712 172.407 31.65 172.407Z" fill="black"/>
<path d="M73.85 91.4814C84.2982 91.4814 97.517 79.8138 104.47 72.8578C119.567 57.7526 119.567 38.9781 119.567 10.5552C119.567 8.35251 120.882 7.03678 123.083 7.03678C135.244 7.03678 140.667 12.4622 140.667 24.6295V66.8519C140.667 68.7939 142.239 70.3702 144.183 70.3702C146.128 70.3702 147.7 68.7939 147.7 66.8519V24.6295C147.7 8.51456 139.186 0 123.083 0C116.971 0 112.533 4.44035 112.533 10.5556C112.533 38.1724 112.533 54.8399 99.4972 67.8831C89.288 78.0969 79.4592 84.4442 73.85 84.4442C71.9053 84.4442 70.3335 86.0205 70.3335 87.9626C70.3335 89.9047 71.9053 91.4814 73.85 91.4814Z" fill="black"/>
<path d="M59.7835 77.407H3.51653C1.57179 77.407 0 78.9834 0 80.9254V186.481C0 188.423 1.57179 190 3.51653 190H59.7831C61.7278 190 63.2996 188.423 63.2996 186.481V80.9254C63.3 78.9834 61.7282 77.407 59.7835 77.407ZM56.2665 182.963H7.03347V84.4442H56.2669L56.2665 182.963Z" fill="black"/>
</svg>
